# Blender 4.1.1
# www.blender.org
mtllib start buttons.mtl
g Cylinder_Cylinder
v 0.000000 -1.000000 -1.000000
v 0.006736 -0.737190 -0.994625
v 2.868412 -1.000000 -0.980785
v 2.859729 -0.737190 -0.975514
v 3.056005 -1.000000 -0.923880
v 3.046314 -0.737190 -0.918914
v 3.228892 -1.000000 -0.831470
v 3.218272 -0.737190 -0.827000
v 3.380428 -1.000000 -0.707107
v 3.368994 -0.737190 -0.703306
v 3.504791 -1.000000 -0.555570
v 3.492688 -0.737190 -0.552584
v 3.597201 -1.000000 -0.382683
v 3.584601 -0.737190 -0.380627
v 3.654106 -1.000000 -0.195090
v 3.641201 -0.737190 -0.194042
v 3.673321 -1.000000 0.000000
v 3.660312 -0.737190 -0.000000
v 3.654106 -1.000000 0.195090
v 3.641201 -0.737190 0.194042
v 3.597201 -1.000000 0.382683
v 3.584601 -0.737190 0.380626
v 3.504791 -1.000000 0.555570
v 3.492688 -0.737190 0.552584
v 3.380428 -1.000000 0.707107
v 3.368994 -0.737190 0.703306
v 3.228892 -1.000000 0.831470
v 3.218272 -0.737190 0.827000
v 3.056005 -1.000000 0.923880
v 3.046314 -0.737190 0.918914
v 2.868412 -1.000000 0.980785
v 2.859729 -0.737190 0.975514
v 0.000000 -1.000000 1.000000
v 0.006736 -0.737190 0.994625
v -0.195090 -1.000000 0.980785
v -0.187306 -0.737190 0.975514
v -0.382683 -1.000000 0.923880
v -0.373891 -0.737190 0.918914
v -0.555570 -1.000000 0.831470
v -0.545848 -0.737190 0.827000
v -0.707107 -1.000000 0.707107
v -0.696571 -0.737190 0.703306
v -0.831470 -1.000000 0.555570
v -0.820265 -0.737190 0.552584
v -0.923880 -1.000000 0.382683
v -0.912178 -0.737190 0.380626
v -0.980785 -1.000000 0.195090
v -0.968778 -0.737190 0.194042
v -1.000000 -1.000000 0.000000
v -0.987890 -0.737190 -0.000000
v -0.980785 -1.000000 -0.195090
v -0.968778 -0.737190 -0.194042
v -0.923880 -1.000000 -0.382683
v -0.912178 -0.737190 -0.380627
v -0.831470 -1.000000 -0.555570
v -0.820265 -0.737190 -0.552584
v -0.707107 -1.000000 -0.707107
v -0.696571 -0.737190 -0.703306
v -0.555570 -1.000000 -0.831470
v -0.545848 -0.737190 -0.827000
v -0.382683 -1.000000 -0.923880
v -0.373891 -0.737190 -0.918914
v -0.195090 -1.000000 -0.980785
v -0.187306 -0.737190 -0.975514
v 0.000000 -0.754968 -1.000000
v 2.868412 -0.754968 -0.980785
v 3.056005 -0.754968 -0.923880
v 3.228892 -0.754968 -0.831470
v 3.380428 -0.754968 -0.707107
v 3.504791 -0.754968 -0.555570
v 3.597201 -0.754968 -0.382683
v 3.654106 -0.754968 -0.195090
v 3.673321 -0.754968 0.000000
v 3.654106 -0.754968 0.195090
v 3.597201 -0.754968 0.382683
v 3.504791 -0.754968 0.555570
v 3.380428 -0.754968 0.707107
v 3.228892 -0.754968 0.831470
v 3.056005 -0.754968 0.923880
v 2.868412 -0.754968 0.980785
v 0.000000 -0.754968 1.000000
v -0.195090 -0.754968 0.980785
v -0.382683 -0.754968 0.923880
v -0.555570 -0.754968 0.831470
v -0.707107 -0.754968 0.707107
v -0.831470 -0.754968 0.555570
v -0.923880 -0.754968 0.382683
v -0.980785 -0.754968 0.195090
v -1.000000 -0.754968 0.000000
v -0.980785 -0.754968 -0.195090
v -0.923880 -0.754968 -0.382683
v -0.831470 -0.754968 -0.555570
v -0.707107 -0.754968 -0.707107
v -0.555570 -0.754968 -0.831470
v -0.382683 -0.754968 -0.923880
v -0.195090 -0.754968 -0.980785
vn 0.0064 0.2872 -0.9579
vn 0.2671 0.3916 -0.8805
vn 0.4211 0.4496 -0.7878
vn 0.5504 0.4973 -0.6706
vn 0.6532 0.5347 -0.5361
vn 0.7294 0.5621 -0.3899
vn 0.7796 0.5799 -0.2365
vn 0.8045 0.5887 -0.0792
vn 0.8045 0.5887 0.0792
vn 0.7796 0.5799 0.2365
vn 0.7294 0.5621 0.3899
vn 0.6532 0.5347 0.5361
vn 0.5504 0.4973 0.6706
vn 0.4211 0.4496 0.7878
vn 0.2671 0.3915 0.8805
vn 0.0064 0.2872 0.9579
vn -0.0929 0.3202 0.9428
vn -0.2685 0.3800 0.8851
vn -0.4251 0.4324 0.7952
vn -0.5579 0.4760 0.6798
vn -0.6647 0.5105 0.5455
vn -0.7445 0.5361 0.3979
vn -0.7974 0.5528 0.2419
vn -0.8237 0.5611 0.0811
vn -0.8237 0.5611 -0.0811
vn -0.7974 0.5528 -0.2419
vn -0.7445 0.5361 -0.3979
vn -0.6647 0.5105 -0.5455
vn -0.5579 0.4760 -0.6798
vn -0.4251 0.4324 -0.7952
vn -0.0000 1.0000 -0.0000
vn -0.2685 0.3800 -0.8851
vn -0.0929 0.3202 -0.9428
vn -0.0000 -1.0000 -0.0000
vn -0.0980 -0.0000 -0.9952
vn -0.2903 -0.0000 -0.9569
vn -0.4714 -0.0000 -0.8819
vn -0.6344 -0.0000 -0.7730
vn -0.7730 -0.0000 -0.6344
vn -0.8819 -0.0000 -0.4714
vn -0.9569 -0.0000 -0.2903
vn -0.9952 -0.0000 -0.0980
vn -0.9952 -0.0000 0.0980
vn -0.9569 -0.0000 0.2903
vn -0.8819 -0.0000 0.4714
vn -0.7730 -0.0000 0.6344
vn -0.6344 -0.0000 0.7730
vn -0.4714 -0.0000 0.8819
vn -0.2903 -0.0000 0.9569
vn -0.0980 -0.0000 0.9952
vn 0.0067 -0.0000 1.0000
vn 0.2903 -0.0000 0.9569
vn 0.4714 -0.0000 0.8819
vn 0.6344 -0.0000 0.7730
vn 0.7730 -0.0000 0.6344
vn 0.8819 -0.0000 0.4714
vn 0.9569 -0.0000 0.2903
vn 0.9952 -0.0000 0.0980
vn 0.9952 -0.0000 -0.0980
vn 0.9569 -0.0000 -0.2903
vn 0.8819 -0.0000 -0.4714
vn 0.7730 -0.0000 -0.6344
vn 0.6344 -0.0000 -0.7730
vn 0.4714 -0.0000 -0.8819
vn 0.2903 -0.0000 -0.9569
vn 0.0067 -0.0000 -1.0000
vt 1.000000 0.954528
vt 1.000000 1.000000
vt 0.968750 1.000000
vt 0.968750 0.954528
vt 0.937500 1.000000
vt 0.937500 0.954528
vt 0.906250 1.000000
vt 0.906250 0.954528
vt 0.875000 1.000000
vt 0.875000 0.954528
vt 0.843750 1.000000
vt 0.843750 0.954528
vt 0.812500 1.000000
vt 0.812500 0.954528
vt 0.781250 1.000000
vt 0.781250 0.954528
vt 0.750000 1.000000
vt 0.750000 0.954528
vt 0.718750 1.000000
vt 0.718750 0.954528
vt 0.687500 1.000000
vt 0.687500 0.954528
vt 0.656250 1.000000
vt 0.656250 0.954528
vt 0.625000 1.000000
vt 0.625000 0.954528
vt 0.593750 1.000000
vt 0.593750 0.954528
vt 0.562500 1.000000
vt 0.562500 0.954528
vt 0.531250 1.000000
vt 0.531250 0.954528
vt 0.500000 1.000000
vt 0.500000 0.954528
vt 0.468750 1.000000
vt 0.468750 0.954528
vt 0.437500 1.000000
vt 0.437500 0.954528
vt 0.406250 1.000000
vt 0.406250 0.954528
vt 0.375000 1.000000
vt 0.375000 0.954528
vt 0.343750 1.000000
vt 0.343750 0.954528
vt 0.312500 1.000000
vt 0.312500 0.954528
vt 0.281250 1.000000
vt 0.281250 0.954528
vt 0.250000 1.000000
vt 0.250000 0.954528
vt 0.218750 1.000000
vt 0.218750 0.954528
vt 0.187500 1.000000
vt 0.187500 0.954528
vt 0.156250 1.000000
vt 0.156250 0.954528
vt 0.125000 1.000000
vt 0.125000 0.954528
vt 0.093750 1.000000
vt 0.093750 0.954528
vt 0.062500 1.000000
vt 0.062500 0.954528
vt 0.296822 0.485388
vt 0.296822 0.014612
vt 0.341844 0.028269
vt 0.341844 0.471731
vt 0.031250 1.000000
vt 0.031250 0.954528
vt 0.000000 1.000000
vt 0.000000 0.954528
vt 0.750000 0.490000
vt 0.796822 0.485388
vt 0.841844 0.471731
vt 0.883337 0.449553
vt 0.919706 0.419706
vt 0.949553 0.383337
vt 0.971731 0.341844
vt 0.985388 0.296822
vt 0.990000 0.250000
vt 0.985388 0.203178
vt 0.971731 0.158156
vt 0.949553 0.116663
vt 0.919706 0.080294
vt 0.883337 0.050447
vt 0.841844 0.028269
vt 0.796822 0.014612
vt 0.750000 0.010000
vt 0.703178 0.014612
vt 0.658156 0.028269
vt 0.616663 0.050447
vt 0.580294 0.080294
vt 0.550447 0.116663
vt 0.528269 0.158156
vt 0.514612 0.203178
vt 0.510000 0.250000
vt 0.514612 0.296822
vt 0.528269 0.341844
vt 0.550447 0.383337
vt 0.580294 0.419706
vt 0.616663 0.449553
vt 0.658156 0.471731
vt 0.703178 0.485388
vt 0.031250 0.500000
vt 0.000000 0.500000
vt 0.062500 0.500000
vt 0.093750 0.500000
vt 0.125000 0.500000
vt 0.156250 0.500000
vt 0.187500 0.500000
vt 0.218750 0.500000
vt 0.250000 0.500000
vt 0.281250 0.500000
vt 0.312500 0.500000
vt 0.343750 0.500000
vt 0.375000 0.500000
vt 0.406250 0.500000
vt 0.437500 0.500000
vt 0.468750 0.500000
vt 0.500000 0.500000
vt 0.531250 0.500000
vt 0.562500 0.500000
vt 0.593750 0.500000
vt 0.625000 0.500000
vt 0.656250 0.500000
vt 0.687500 0.500000
vt 0.718750 0.500000
vt 0.750000 0.500000
vt 0.781250 0.500000
vt 0.812500 0.500000
vt 0.843750 0.500000
vt 0.875000 0.500000
vt 0.906250 0.500000
vt 0.937500 0.500000
vt 0.968750 0.500000
vt 1.000000 0.500000
vt 0.383337 0.050447
vt 0.383337 0.449553
vt 0.419706 0.080294
vt 0.419706 0.419706
vt 0.449553 0.116663
vt 0.449553 0.383337
vt 0.471731 0.158156
vt 0.471731 0.341844
vt 0.485388 0.203178
vt 0.485388 0.296822
vt 0.490000 0.250000
vt 0.250000 0.490000
vt 0.250000 0.010000
vt 0.203178 0.485388
vt 0.203178 0.014612
vt 0.158156 0.471731
vt 0.158156 0.028269
vt 0.116663 0.449553
vt 0.116663 0.050447
vt 0.080294 0.419706
vt 0.080294 0.080294
vt 0.050447 0.383337
vt 0.050447 0.116663
vt 0.028269 0.341844
vt 0.028269 0.158156
vt 0.014612 0.296822
vt 0.014612 0.203178
vt 0.010000 0.250000
s 0
f 65/1/1 2/2/1 4/3/1 66/4/1
f 66/4/2 4/3/2 6/5/2 67/6/2
f 67/6/3 6/5/3 8/7/3 68/8/3
f 68/8/4 8/7/4 10/9/4 69/10/4
f 69/10/5 10/9/5 12/11/5 70/12/5
f 70/12/6 12/11/6 14/13/6 71/14/6
f 71/14/7 14/13/7 16/15/7 72/16/7
f 72/16/8 16/15/8 18/17/8 73/18/8
f 73/18/9 18/17/9 20/19/9 74/20/9
f 74/20/10 20/19/10 22/21/10 75/22/10
f 75/22/11 22/21/11 24/23/11 76/24/11
f 76/24/12 24/23/12 26/25/12 77/26/12
f 77/26/13 26/25/13 28/27/13 78/28/13
f 78/28/14 28/27/14 30/29/14 79/30/14
f 79/30/15 30/29/15 32/31/15 80/32/15
f 80/32/16 32/31/16 34/33/16 81/34/16
f 81/34/17 34/33/17 36/35/17 82/36/17
f 82/36/18 36/35/18 38/37/18 83/38/18
f 83/38/19 38/37/19 40/39/19 84/40/19
f 84/40/20 40/39/20 42/41/20 85/42/20
f 85/42/21 42/41/21 44/43/21 86/44/21
f 86/44/22 44/43/22 46/45/22 87/46/22
f 87/46/23 46/45/23 48/47/23 88/48/23
f 88/48/24 48/47/24 50/49/24 89/50/24
f 89/50/25 50/49/25 52/51/25 90/52/25
f 90/52/26 52/51/26 54/53/26 91/54/26
f 91/54/27 54/53/27 56/55/27 92/56/27
f 92/56/28 56/55/28 58/57/28 93/58/28
f 93/58/29 58/57/29 60/59/29 94/60/29
f 94/60/30 60/59/30 62/61/30 95/62/30
f 4/63/31 32/64/31 30/65/31 6/66/31
f 95/62/32 62/61/32 64/67/32 96/68/32
f 96/68/33 64/67/33 2/69/33 65/70/33
f 1/71/34 3/72/34 5/73/34 7/74/34 9/75/34 11/76/34 13/77/34 15/78/34 17/79/34 19/80/34 21/81/34 23/82/34 25/83/34 27/84/34 29/85/34 31/86/34 33/87/34 35/88/34 37/89/34 39/90/34 41/91/34 43/92/34 45/93/34 47/94/34 49/95/34 51/96/34 53/97/34 55/98/34 57/99/34 59/100/34 61/101/34 63/102/34
f 63/103/35 96/68/35 65/70/35 1/104/35
f 61/105/36 95/62/36 96/68/36 63/103/36
f 59/106/37 94/60/37 95/62/37 61/105/37
f 57/107/38 93/58/38 94/60/38 59/106/38
f 55/108/39 92/56/39 93/58/39 57/107/39
f 53/109/40 91/54/40 92/56/40 55/108/40
f 51/110/41 90/52/41 91/54/41 53/109/41
f 49/111/42 89/50/42 90/52/42 51/110/42
f 47/112/43 88/48/43 89/50/43 49/111/43
f 45/113/44 87/46/44 88/48/44 47/112/44
f 43/114/45 86/44/45 87/46/45 45/113/45
f 41/115/46 85/42/46 86/44/46 43/114/46
f 39/116/47 84/40/47 85/42/47 41/115/47
f 37/117/48 83/38/48 84/40/48 39/116/48
f 35/118/49 82/36/49 83/38/49 37/117/49
f 33/119/50 81/34/50 82/36/50 35/118/50
f 31/120/51 80/32/51 81/34/51 33/119/51
f 29/121/52 79/30/52 80/32/52 31/120/52
f 27/122/53 78/28/53 79/30/53 29/121/53
f 25/123/54 77/26/54 78/28/54 27/122/54
f 23/124/55 76/24/55 77/26/55 25/123/55
f 21/125/56 75/22/56 76/24/56 23/124/56
f 19/126/57 74/20/57 75/22/57 21/125/57
f 17/127/58 73/18/58 74/20/58 19/126/58
f 15/128/59 72/16/59 73/18/59 17/127/59
f 13/129/60 71/14/60 72/16/60 15/128/60
f 11/130/61 70/12/61 71/14/61 13/129/61
f 9/131/62 69/10/62 70/12/62 11/130/62
f 7/132/63 68/8/63 69/10/63 9/131/63
f 5/133/64 67/6/64 68/8/64 7/132/64
f 3/134/65 66/4/65 67/6/65 5/133/65
f 1/135/66 65/1/66 66/4/66 3/134/66
f 6/66/31 30/65/31 28/136/31 8/137/31
f 8/137/31 28/136/31 26/138/31 10/139/31
f 10/139/31 26/138/31 24/140/31 12/141/31
f 12/141/31 24/140/31 22/142/31 14/143/31
f 14/143/31 22/142/31 20/144/31 16/145/31
f 16/145/31 20/144/31 18/146/31
f 32/64/31 4/63/31 2/147/31 34/148/31
f 34/148/31 2/147/31 64/149/31 36/150/31
f 36/150/31 64/149/31 62/151/31 38/152/31
f 38/152/31 62/151/31 60/153/31 40/154/31
f 40/154/31 60/153/31 58/155/31 42/156/31
f 42/156/31 58/155/31 56/157/31 44/158/31
f 44/158/31 56/157/31 54/159/31 46/160/31
f 46/160/31 54/159/31 52/161/31 48/162/31
f 48/162/31 52/161/31 50/163/31
g Cylinder.001_Cylinder.001
v 0.000000 -0.788058 -0.858505
v 0.012661 -0.562434 -0.849804
v 2.832700 -0.788058 -0.842009
v 2.816653 -0.562434 -0.833476
v 2.993749 -0.788058 -0.793155
v 2.976070 -0.562434 -0.785117
v 3.142173 -0.788058 -0.713821
v 3.122990 -0.562434 -0.706586
v 3.272268 -0.788058 -0.607055
v 3.251767 -0.562434 -0.600902
v 3.379034 -0.788058 -0.476960
v 3.357450 -0.562434 -0.472126
v 3.458369 -0.788058 -0.328536
v 3.435981 -0.562434 -0.325206
v 3.507222 -0.788058 -0.167486
v 3.484339 -0.562434 -0.165789
v 3.523718 -0.788058 0.000000
v 3.500668 -0.562434 -0.000000
v 3.507222 -0.788058 0.167486
v 3.484339 -0.562434 0.165789
v 3.458369 -0.788058 0.328536
v 3.435981 -0.562434 0.325206
v 3.379034 -0.788058 0.476960
v 3.357450 -0.562434 0.472126
v 3.272268 -0.788058 0.607055
v 3.251767 -0.562434 0.600902
v 3.142173 -0.788058 0.713821
v 3.122990 -0.562434 0.706586
v 2.993749 -0.788058 0.793155
v 2.976070 -0.562434 0.785117
v 2.832700 -0.788058 0.842009
v 2.816653 -0.562434 0.833476
v 0.000000 -0.788058 0.858505
v 0.012661 -0.562434 0.849804
v -0.167486 -0.788058 0.842009
v -0.153127 -0.562434 0.833476
v -0.328536 -0.788058 0.793155
v -0.312545 -0.562434 0.785117
v -0.476960 -0.788058 0.713821
v -0.459465 -0.562434 0.706586
v -0.607055 -0.788058 0.607055
v -0.588241 -0.562434 0.600902
v -0.713821 -0.788058 0.476960
v -0.693925 -0.562434 0.472126
v -0.793155 -0.788058 0.328536
v -0.772456 -0.562434 0.325206
v -0.842009 -0.788058 0.167486
v -0.820814 -0.562434 0.165789
v -0.858505 -0.788058 0.000000
v -0.837143 -0.562434 -0.000000
v -0.842009 -0.788058 -0.167486
v -0.820814 -0.562434 -0.165789
v -0.793155 -0.788058 -0.328536
v -0.772456 -0.562434 -0.325206
v -0.713821 -0.788058 -0.476960
v -0.693925 -0.562434 -0.472126
v -0.607055 -0.788058 -0.607055
v -0.588241 -0.562434 -0.600902
v -0.476960 -0.788058 -0.713821
v -0.459465 -0.562434 -0.706586
v -0.328536 -0.788058 -0.793155
v -0.312545 -0.562434 -0.785117
v -0.167486 -0.788058 -0.842009
v -0.153127 -0.562434 -0.833476
v 0.000000 -0.577289 -0.858505
v 2.832700 -0.577289 -0.842009
v 2.993749 -0.577289 -0.793155
v 3.142173 -0.577289 -0.713821
v 3.272268 -0.577289 -0.607055
v 3.379034 -0.577289 -0.476960
v 3.458369 -0.577289 -0.328536
v 3.507222 -0.577289 -0.167486
v 3.523718 -0.577289 0.000000
v 3.507222 -0.577289 0.167486
v 3.458369 -0.577289 0.328536
v 3.379034 -0.577289 0.476960
v 3.272268 -0.577289 0.607055
v 3.142173 -0.577289 0.713821
v 2.993749 -0.577289 0.793155
v 2.832700 -0.577289 0.842009
v 0.000000 -0.577289 0.858505
v -0.167486 -0.577289 0.842009
v -0.328536 -0.577289 0.793155
v -0.476960 -0.577289 0.713821
v -0.607055 -0.577289 0.607055
v -0.713821 -0.577289 0.476960
v -0.793155 -0.577289 0.328536
v -0.842009 -0.577289 0.167486
v -0.858505 -0.577289 0.000000
v -0.842009 -0.577289 -0.167486
v -0.793155 -0.577289 -0.328536
v -0.713821 -0.577289 -0.476960
v -0.607055 -0.577289 -0.607055
v -0.476960 -0.577289 -0.713821
v -0.328536 -0.577289 -0.793155
v -0.167486 -0.577289 -0.842009
vn 0.0050 0.5022 -0.8647
vn 0.2197 0.6535 -0.7244
vn 0.3270 0.7202 -0.6118
vn 0.4070 0.7671 -0.4959
vn 0.4646 0.7992 -0.3813
vn 0.5043 0.8204 -0.2695
vn 0.5290 0.8333 -0.1605
vn 0.5409 0.8394 -0.0533
vn 0.5409 0.8394 0.0533
vn 0.5290 0.8333 0.1605
vn 0.5043 0.8204 0.2695
vn 0.4646 0.7992 0.3813
vn 0.4070 0.7671 0.4959
vn 0.3270 0.7202 0.6118
vn 0.2197 0.6535 0.7244
vn 0.0050 0.5022 0.8647
vn -0.0816 0.5546 0.8281
vn -0.2233 0.6388 0.7362
vn -0.3359 0.7016 0.6284
vn -0.4218 0.7470 0.5139
vn -0.4848 0.7788 0.3979
vn -0.5288 0.8003 0.2827
vn -0.5566 0.8134 0.1688
vn -0.5700 0.8197 0.0561
vn -0.5700 0.8197 -0.0561
vn -0.5566 0.8134 -0.1688
vn -0.5288 0.8003 -0.2827
vn -0.4848 0.7788 -0.3979
vn -0.4218 0.7470 -0.5139
vn -0.3359 0.7016 -0.6284
vn -0.0000 1.0000 -0.0000
vn -0.2233 0.6388 -0.7362
vn -0.0816 0.5546 -0.8281
vn -0.0000 -1.0000 -0.0000
vn -0.0980 -0.0000 -0.9952
vn -0.2903 -0.0000 -0.9569
vn -0.4714 -0.0000 -0.8819
vn -0.6344 -0.0000 -0.7730
vn -0.7730 -0.0000 -0.6344
vn -0.8819 -0.0000 -0.4714
vn -0.9569 -0.0000 -0.2903
vn -0.9952 -0.0000 -0.0980
vn -0.9952 -0.0000 0.0980
vn -0.9569 -0.0000 0.2903
vn -0.8819 -0.0000 0.4714
vn -0.7730 -0.0000 0.6344
vn -0.6344 -0.0000 0.7730
vn -0.4714 -0.0000 0.8819
vn -0.2903 -0.0000 0.9569
vn -0.0980 -0.0000 0.9952
vn 0.0058 -0.0000 1.0000
vn 0.2903 -0.0000 0.9569
vn 0.4714 -0.0000 0.8819
vn 0.6344 -0.0000 0.7730
vn 0.7730 -0.0000 0.6344
vn 0.8819 -0.0000 0.4714
vn 0.9569 -0.0000 0.2903
vn 0.9952 -0.0000 0.0980
vn 0.9952 -0.0000 -0.0980
vn 0.9569 -0.0000 -0.2903
vn 0.8819 -0.0000 -0.4714
vn 0.7730 -0.0000 -0.6344
vn 0.6344 -0.0000 -0.7730
vn 0.4714 -0.0000 -0.8819
vn 0.2903 -0.0000 -0.9569
vn 0.0058 -0.0000 -1.0000
vt 1.000000 0.967080
vt 1.000000 1.000000
vt 0.968750 1.000000
vt 0.968750 0.967080
vt 0.937500 1.000000
vt 0.937500 0.967080
vt 0.906250 1.000000
vt 0.906250 0.967080
vt 0.875000 1.000000
vt 0.875000 0.967080
vt 0.843750 1.000000
vt 0.843750 0.967080
vt 0.812500 1.000000
vt 0.812500 0.967080
vt 0.781250 1.000000
vt 0.781250 0.967080
vt 0.750000 1.000000
vt 0.750000 0.967080
vt 0.718750 1.000000
vt 0.718750 0.967080
vt 0.687500 1.000000
vt 0.687500 0.967080
vt 0.656250 1.000000
vt 0.656250 0.967080
vt 0.625000 1.000000
vt 0.625000 0.967080
vt 0.593750 1.000000
vt 0.593750 0.967080
vt 0.562500 1.000000
vt 0.562500 0.967080
vt 0.531250 1.000000
vt 0.531250 0.967080
vt 0.500000 1.000000
vt 0.500000 0.967080
vt 0.468750 1.000000
vt 0.468750 0.967080
vt 0.437500 1.000000
vt 0.437500 0.967080
vt 0.406250 1.000000
vt 0.406250 0.967080
vt 0.375000 1.000000
vt 0.375000 0.967080
vt 0.343750 1.000000
vt 0.343750 0.967080
vt 0.312500 1.000000
vt 0.312500 0.967080
vt 0.281250 1.000000
vt 0.281250 0.967080
vt 0.250000 1.000000
vt 0.250000 0.967080
vt 0.218750 1.000000
vt 0.218750 0.967080
vt 0.187500 1.000000
vt 0.187500 0.967080
vt 0.156250 1.000000
vt 0.156250 0.967080
vt 0.125000 1.000000
vt 0.125000 0.967080
vt 0.093750 1.000000
vt 0.093750 0.967080
vt 0.062500 1.000000
vt 0.062500 0.967080
vt 0.296822 0.485388
vt 0.296822 0.014612
vt 0.341844 0.028269
vt 0.341844 0.471731
vt 0.031250 1.000000
vt 0.031250 0.967080
vt 0.000000 1.000000
vt 0.000000 0.967080
vt 0.750000 0.490000
vt 0.796822 0.485388
vt 0.841844 0.471731
vt 0.883337 0.449553
vt 0.919706 0.419706
vt 0.949553 0.383337
vt 0.971731 0.341844
vt 0.985388 0.296822
vt 0.990000 0.250000
vt 0.985388 0.203178
vt 0.971731 0.158156
vt 0.949553 0.116663
vt 0.919706 0.080294
vt 0.883337 0.050447
vt 0.841844 0.028269
vt 0.796822 0.014612
vt 0.750000 0.010000
vt 0.703178 0.014612
vt 0.658156 0.028269
vt 0.616663 0.050447
vt 0.580294 0.080294
vt 0.550447 0.116663
vt 0.528269 0.158156
vt 0.514612 0.203178
vt 0.510000 0.250000
vt 0.514612 0.296822
vt 0.528269 0.341844
vt 0.550447 0.383337
vt 0.580294 0.419706
vt 0.616663 0.449553
vt 0.658156 0.471731
vt 0.703178 0.485388
vt 0.031250 0.500000
vt 0.000000 0.500000
vt 0.062500 0.500000
vt 0.093750 0.500000
vt 0.125000 0.500000
vt 0.156250 0.500000
vt 0.187500 0.500000
vt 0.218750 0.500000
vt 0.250000 0.500000
vt 0.281250 0.500000
vt 0.312500 0.500000
vt 0.343750 0.500000
vt 0.375000 0.500000
vt 0.406250 0.500000
vt 0.437500 0.500000
vt 0.468750 0.500000
vt 0.500000 0.500000
vt 0.531250 0.500000
vt 0.562500 0.500000
vt 0.593750 0.500000
vt 0.625000 0.500000
vt 0.656250 0.500000
vt 0.687500 0.500000
vt 0.718750 0.500000
vt 0.750000 0.500000
vt 0.781250 0.500000
vt 0.812500 0.500000
vt 0.843750 0.500000
vt 0.875000 0.500000
vt 0.906250 0.500000
vt 0.937500 0.500000
vt 0.968750 0.500000
vt 1.000000 0.500000
vt 0.250000 0.010000
vt 0.250000 0.490000
vt 0.203178 0.485388
vt 0.203178 0.014612
vt 0.158156 0.471731
vt 0.158156 0.028269
vt 0.116663 0.449553
vt 0.116663 0.050447
vt 0.080294 0.419706
vt 0.080294 0.080294
vt 0.050447 0.383337
vt 0.050447 0.116663
vt 0.028269 0.341844
vt 0.028269 0.158156
vt 0.014612 0.296822
vt 0.014612 0.203178
vt 0.010000 0.250000
vt 0.383337 0.050447
vt 0.383337 0.449553
vt 0.419706 0.080294
vt 0.419706 0.419706
vt 0.449553 0.116663
vt 0.449553 0.383337
vt 0.471731 0.158156
vt 0.471731 0.341844
vt 0.485388 0.203178
vt 0.485388 0.296822
vt 0.490000 0.250000
s 0
f 161/164/67 98/165/67 100/166/67 162/167/67
f 162/167/68 100/166/68 102/168/68 163/169/68
f 163/169/69 102/168/69 104/170/69 164/171/69
f 164/171/70 104/170/70 106/172/70 165/173/70
f 165/173/71 106/172/71 108/174/71 166/175/71
f 166/175/72 108/174/72 110/176/72 167/177/72
f 167/177/73 110/176/73 112/178/73 168/179/73
f 168/179/74 112/178/74 114/180/74 169/181/74
f 169/181/75 114/180/75 116/182/75 170/183/75
f 170/183/76 116/182/76 118/184/76 171/185/76
f 171/185/77 118/184/77 120/186/77 172/187/77
f 172/187/78 120/186/78 122/188/78 173/189/78
f 173/189/79 122/188/79 124/190/79 174/191/79
f 174/191/80 124/190/80 126/192/80 175/193/80
f 175/193/81 126/192/81 128/194/81 176/195/81
f 176/195/82 128/194/82 130/196/82 177/197/82
f 177/197/83 130/196/83 132/198/83 178/199/83
f 178/199/84 132/198/84 134/200/84 179/201/84
f 179/201/85 134/200/85 136/202/85 180/203/85
f 180/203/86 136/202/86 138/204/86 181/205/86
f 181/205/87 138/204/87 140/206/87 182/207/87
f 182/207/88 140/206/88 142/208/88 183/209/88
f 183/209/89 142/208/89 144/210/89 184/211/89
f 184/211/90 144/210/90 146/212/90 185/213/90
f 185/213/91 146/212/91 148/214/91 186/215/91
f 186/215/92 148/214/92 150/216/92 187/217/92
f 187/217/93 150/216/93 152/218/93 188/219/93
f 188/219/94 152/218/94 154/220/94 189/221/94
f 189/221/95 154/220/95 156/222/95 190/223/95
f 190/223/96 156/222/96 158/224/96 191/225/96
f 100/226/97 128/227/97 126/228/97 102/229/97
f 191/225/98 158/224/98 160/230/98 192/231/98
f 192/231/99 160/230/99 98/232/99 161/233/99
f 97/234/100 99/235/100 101/236/100 103/237/100 105/238/100 107/239/100 109/240/100 111/241/100 113/242/100 115/243/100 117/244/100 119/245/100 121/246/100 123/247/100 125/248/100 127/249/100 129/250/100 131/251/100 133/252/100 135/253/100 137/254/100 139/255/100 141/256/100 143/257/100 145/258/100 147/259/100 149/260/100 151/261/100 153/262/100 155/263/100 157/264/100 159/265/100
f 159/266/101 192/231/101 161/233/101 97/267/101
f 157/268/102 191/225/102 192/231/102 159/266/102
f 155/269/103 190/223/103 191/225/103 157/268/103
f 153/270/104 189/221/104 190/223/104 155/269/104
f 151/271/105 188/219/105 189/221/105 153/270/105
f 149/272/106 187/217/106 188/219/106 151/271/106
f 147/273/107 186/215/107 187/217/107 149/272/107
f 145/274/108 185/213/108 186/215/108 147/273/108
f 143/275/109 184/211/109 185/213/109 145/274/109
f 141/276/110 183/209/110 184/211/110 143/275/110
f 139/277/111 182/207/111 183/209/111 141/276/111
f 137/278/112 181/205/112 182/207/112 139/277/112
f 135/279/113 180/203/113 181/205/113 137/278/113
f 133/280/114 179/201/114 180/203/114 135/279/114
f 131/281/115 178/199/115 179/201/115 133/280/115
f 129/282/116 177/197/116 178/199/116 131/281/116
f 127/283/117 176/195/117 177/197/117 129/282/117
f 125/284/118 175/193/118 176/195/118 127/283/118
f 123/285/119 174/191/119 175/193/119 125/284/119
f 121/286/120 173/189/120 174/191/120 123/285/120
f 119/287/121 172/187/121 173/189/121 121/286/121
f 117/288/122 171/185/122 172/187/122 119/287/122
f 115/289/123 170/183/123 171/185/123 117/288/123
f 113/290/124 169/181/124 170/183/124 115/289/124
f 111/291/125 168/179/125 169/181/125 113/290/125
f 109/292/126 167/177/126 168/179/126 111/291/126
f 107/293/127 166/175/127 167/177/127 109/292/127
f 105/294/128 165/173/128 166/175/128 107/293/128
f 103/295/129 164/171/129 165/173/129 105/294/129
f 101/296/130 163/169/130 164/171/130 103/295/130
f 99/297/131 162/167/131 163/169/131 101/296/131
f 97/298/132 161/164/132 162/167/132 99/297/132
f 130/299/97 98/300/97 160/301/97 132/302/97
f 132/302/97 160/301/97 158/303/97 134/304/97
f 134/304/97 158/303/97 156/305/97 136/306/97
f 136/306/97 156/305/97 154/307/97 138/308/97
f 138/308/97 154/307/97 152/309/97 140/310/97
f 140/310/97 152/309/97 150/311/97 142/312/97
f 142/312/97 150/311/97 148/313/97 144/314/97
f 144/314/97 148/313/97 146/315/97
f 102/229/97 126/228/97 124/316/97 104/317/97
f 104/317/97 124/316/97 122/318/97 106/319/97
f 106/319/97 122/318/97 120/320/97 108/321/97
f 108/321/97 120/320/97 118/322/97 110/323/97
f 110/323/97 118/322/97 116/324/97 112/325/97
f 112/325/97 116/324/97 114/326/97
f 128/227/97 100/226/97 98/300/97 130/299/97
